<?xml version="1.0" encoding="UTF-8"?>
<svg id="Layer_2" data-name="Layer 2" xmlns="http://www.w3.org/2000/svg" viewBox="0 0 6.78 6.78">
  <defs>
    <style>
      .cls-1 {
        fill: #fdfeff;
      }

      .cls-2 {
        fill: #5c666f;
      }
    </style>
  </defs>
  <g id="Layer_1-2" data-name="Layer 1">
    <g>
      <circle class="cls-2" cx="3.39" cy="3.39" r="3.39"/>
      <path class="cls-1" d="M5.26,2.45c-.14,.06-.29,.1-.45,.12,.16-.1,.28-.25,.34-.43-.15,.09-.32,.15-.49,.19-.14-.15-.34-.25-.57-.25-.5,0-.87,.47-.76,.95-.65-.03-1.22-.34-1.6-.81-.2,.35-.11,.81,.24,1.04-.13,0-.25-.04-.35-.1,0,.36,.25,.7,.62,.77-.11,.03-.23,.04-.35,.01,.1,.31,.39,.53,.73,.54-.33,.26-.74,.37-1.15,.32,.34,.22,.75,.35,1.19,.35,1.44,0,2.26-1.22,2.21-2.31,.15-.11,.28-.25,.39-.4Z"/>
    </g>
  </g>
</svg>